<svg width="609" height="434" viewBox="0 0 609 434" fill="none" xmlns="http://www.w3.org/2000/svg">
<mask id="path-1-outside-1_715_2" maskUnits="userSpaceOnUse" x="35" y="97" width="568" height="261" fill="black">
<rect fill="white" x="35" y="97" width="568" height="261"/>
<path d="M40.2628 348V102.34H109.463V204.41L197.001 102.34H279.349L172.089 225.516C177.625 228.515 182.584 232.321 186.967 236.934C191.349 241.547 195.155 246.622 198.385 252.158L211.879 275.34C217.876 286.181 226.987 291.602 239.213 291.602C249.131 291.602 258.012 289.18 265.855 284.336L281.771 337.62C276.235 342.003 268.853 345.463 259.627 348C250.4 350.768 241.058 352.152 231.601 352.152C196.77 352.152 171.858 339.35 156.865 313.746L134.375 275.34C130.684 269.112 127.109 264.499 123.649 261.5C120.189 258.271 115.46 256.079 109.463 254.926V348H40.2628ZM530.72 102.34H595.422L524.492 348H446.642L411.35 188.84L367.062 348H289.212L227.97 102.34H297.516L332.116 252.85L373.636 102.34H456.33L489.2 253.542L530.72 102.34Z"/>
</mask>
<path d="M40.2628 348H35.2628V353H40.2628V348ZM40.2628 102.34V97.34H35.2628V102.34H40.2628ZM109.463 102.34H114.463V97.34H109.463V102.34ZM109.463 204.41H104.463V217.92L113.258 207.665L109.463 204.41ZM197.001 102.34V97.34H194.702L193.205 99.085L197.001 102.34ZM279.349 102.34L283.12 105.624L290.333 97.34H279.349V102.34ZM172.089 225.516L168.318 222.232L164.219 226.94L169.707 229.912L172.089 225.516ZM186.967 236.934L183.342 240.378H183.342L186.967 236.934ZM198.385 252.158L202.706 249.643L202.704 249.639L198.385 252.158ZM211.879 275.34L216.254 272.92L216.228 272.872L216.2 272.825L211.879 275.34ZM265.855 284.336L270.646 282.905L268.778 276.653L263.227 280.082L265.855 284.336ZM281.771 337.62L284.874 341.54L287.532 339.436L286.562 336.189L281.771 337.62ZM259.627 348L258.301 343.179L258.245 343.194L258.19 343.211L259.627 348ZM156.865 313.746L161.179 311.219L156.865 313.746ZM134.375 275.34L138.689 272.813L138.683 272.802L138.676 272.791L134.375 275.34ZM123.649 261.5L120.237 265.155L120.305 265.218L120.374 265.278L123.649 261.5ZM109.463 254.926L110.407 250.016L104.463 248.873V254.926H109.463ZM109.463 348V353H114.463V348H109.463ZM45.2628 348V102.34H35.2628V348H45.2628ZM40.2628 107.34H109.463V97.34H40.2628V107.34ZM104.463 102.34V204.41H114.463V102.34H104.463ZM113.258 207.665L200.796 105.595L193.205 99.085L105.667 201.155L113.258 207.665ZM197.001 107.34H279.349V97.34H197.001V107.34ZM275.578 99.0565L168.318 222.232L175.86 228.8L283.12 105.624L275.578 99.0565ZM169.707 229.912C174.776 232.658 179.317 236.141 183.342 240.378L190.592 233.49C185.851 228.5 180.473 224.371 174.47 221.12L169.707 229.912ZM183.342 240.378C187.456 244.709 191.03 249.473 194.066 254.677L202.704 249.639C199.281 243.771 195.243 238.386 190.592 233.49L183.342 240.378ZM194.064 254.673L207.558 277.855L216.2 272.825L202.706 249.643L194.064 254.673ZM207.504 277.76C210.858 283.825 215.216 288.598 220.654 291.834C226.095 295.071 232.34 296.602 239.213 296.602V286.602C233.86 286.602 229.437 285.423 225.767 283.239C222.093 281.054 218.897 277.697 216.254 272.92L207.504 277.76ZM239.213 296.602C249.986 296.602 259.79 293.959 268.482 288.59L263.227 280.082C256.234 284.401 248.277 286.602 239.213 286.602V296.602ZM261.064 285.767L276.98 339.051L286.562 336.189L270.646 282.905L261.064 285.767ZM278.667 333.7C273.809 337.546 267.097 340.76 258.301 343.179L260.953 352.821C270.61 350.165 278.661 346.459 284.874 341.54L278.667 333.7ZM258.19 343.211C249.421 345.842 240.562 347.152 231.601 347.152V357.152C241.554 357.152 251.38 355.694 261.064 352.789L258.19 343.211ZM231.601 347.152C198.179 347.152 175.105 335 161.179 311.219L152.55 316.273C168.611 343.7 195.361 357.152 231.601 357.152V347.152ZM161.179 311.219L138.689 272.813L130.06 277.867L152.55 316.273L161.179 311.219ZM138.676 272.791C134.851 266.337 130.955 261.216 126.923 257.722L120.374 265.278C123.263 267.782 126.517 271.887 130.073 277.889L138.676 272.791ZM127.06 257.845C122.739 253.811 117.064 251.296 110.407 250.016L108.519 259.836C113.856 260.862 117.639 262.73 120.237 265.155L127.06 257.845ZM104.463 254.926V348H114.463V254.926H104.463ZM109.463 343H40.2628V353H109.463V343ZM530.72 102.34V97.34H526.908L525.899 101.016L530.72 102.34ZM595.422 102.34L600.226 103.727L602.07 97.34H595.422V102.34ZM524.492 348V353H528.253L529.296 349.387L524.492 348ZM446.642 348L441.761 349.082L442.63 353H446.642V348ZM411.35 188.84L416.232 187.758L406.533 187.5L411.35 188.84ZM367.062 348V353H370.861L371.879 349.34L367.062 348ZM289.212 348L284.361 349.209L285.306 353H289.212V348ZM227.97 102.34V97.34H221.571L223.119 103.549L227.97 102.34ZM297.516 102.34L302.389 101.22L301.497 97.34H297.516V102.34ZM332.116 252.85L327.244 253.97L336.936 254.18L332.116 252.85ZM373.636 102.34V97.34H369.829L368.816 101.01L373.636 102.34ZM456.331 102.34L461.216 101.278L460.36 97.34H456.331V102.34ZM489.2 253.542L484.315 254.604L494.022 254.866L489.2 253.542ZM530.72 107.34H595.422V97.34H530.72V107.34ZM590.619 100.953L519.689 346.613L529.296 349.387L600.226 103.727L590.619 100.953ZM524.492 343H446.642V353H524.492V343ZM451.524 346.918L416.232 187.758L406.469 189.922L441.761 349.082L451.524 346.918ZM406.533 187.5L362.245 346.66L371.879 349.34L416.167 190.18L406.533 187.5ZM367.062 343H289.212V353H367.062V343ZM294.064 346.791L232.822 101.131L223.119 103.549L284.361 349.209L294.064 346.791ZM227.97 107.34H297.516V97.34H227.97V107.34ZM292.644 103.46L327.244 253.97L336.989 251.73L302.389 101.22L292.644 103.46ZM336.936 254.18L378.456 103.67L368.816 101.01L327.297 251.52L336.936 254.18ZM373.636 107.34H456.331V97.34H373.636V107.34ZM451.445 103.402L484.315 254.604L494.086 252.48L461.216 101.278L451.445 103.402ZM494.022 254.866L535.542 103.664L525.899 101.016L484.379 252.218L494.022 254.866Z" fill="#E64A19" mask="url(#path-1-outside-1_715_2)"/>
</svg>
